<?xml version="1.0" encoding="utf-8"?>
<!-- Generator: Adobe Illustrator 13.0.2, SVG Export Plug-In . SVG Version: 6.00 Build 14948)  -->
<!DOCTYPE svg PUBLIC "-//W3C//DTD SVG 1.1//EN" "http://www.w3.org/Graphics/SVG/1.1/DTD/svg11.dtd">
<svg version="1.1" id="Layer_1" xmlns="http://www.w3.org/2000/svg" xmlns:xlink="http://www.w3.org/1999/xlink" x="0px" y="0px"
	 width="21px" height="16px" viewBox="0 0 21 16" enable-background="new 0 0 21 16" xml:space="preserve">
<path fill-rule="evenodd" clip-rule="evenodd" fill="none" d="M8.304-0.002c4.589,0,7.111,2.731,7.111,6.159
	c0,3.427-2.522,5.687-7.111,5.687c-0.559,0-1.105-0.042-1.634-0.12c-2.137,2.8-5.277,2.634-5.277,2.634
	c2.38-1.167,2.086-3.132,1.663-3.39C1.188,9.83-0.005,8.097-0.005,6.157C-0.005,2.729,3.715-0.002,8.304-0.002z"/>
<path fill-rule="evenodd" clip-rule="evenodd" fill="none" d="M9.689,13.162c1.212,0.89,1.22,1.293,3.2,1.293
	c0.56,0,1.105-0.162,1.634-0.241c2.136,2.801,5.628,1.502,5.628,1.502c-2.38-1.168-2.437-2.519-2.013-2.777
	c1.868-1.138,2.871-2.871,2.871-4.812c0-2.339-1.402-5.246-5.083-5.974C18.368,7.259,16.786,13.209,9.689,13.162z"/>
</svg>
