<?xml version="1.0" encoding="utf-8"?>
<!-- Generator: Adobe Illustrator 13.0.2, SVG Export Plug-In . SVG Version: 6.00 Build 14948)  -->
<!DOCTYPE svg PUBLIC "-//W3C//DTD SVG 1.1//EN" "http://www.w3.org/Graphics/SVG/1.1/DTD/svg11.dtd">
<svg version="1.1" id="Layer_1" xmlns="http://www.w3.org/2000/svg" xmlns:xlink="http://www.w3.org/1999/xlink" x="0px" y="0px"
	 width="15px" height="16px" viewBox="0 0 15 16" enable-background="new 0 0 15 16" xml:space="preserve">
<path fill="none" d="M10,5v11h5V5H10z M12,14h-1v-1h1V14z M12,12h-1v-1h1V12z M12,10h-1V9h1V10z M12,8h-1V7h1V8z M14,14h-1v-1h1V14z
	 M14,12h-1v-1h1V12z M14,10h-1V9h1V10z M14,8h-1V7h1V8z"/>
<path fill="none" d="M8,7H7V4L6,2H5V0H4v2H2.999L2,4v3H1L0,8v8h9V8L8,7z M5,4h1v1H5V4z M3,4h1v1H3V4z M3,14H2v-1h1V14z M3,12H2v-1h1
	V12z M3,10H2V9h1V10z M3,6h1v1H3V6z M5,14H4v-1h1V14z M5,12H4v-1h1V12z M5,10H4V9h1V10z M5,6h1v1H5V6z M7,14H6v-1h1V14z M7,12H6v-1
	h1V12z M7,10H6V9h1V10z"/>
</svg>
