<?xml version="1.0" encoding="utf-8"?>
<!-- Generator: Adobe Illustrator 13.0.2, SVG Export Plug-In . SVG Version: 6.00 Build 14948)  -->
<!DOCTYPE svg PUBLIC "-//W3C//DTD SVG 1.1//EN" "http://www.w3.org/Graphics/SVG/1.1/DTD/svg11.dtd">
<svg version="1.1" id="Layer_1" xmlns="http://www.w3.org/2000/svg" xmlns:xlink="http://www.w3.org/1999/xlink" x="0px" y="0px"
	 width="15px" height="12px" viewBox="0 0 15 12" enable-background="new 0 0 15 12" xml:space="preserve">
<path fill="none" d="M14.97,0.638L9.246,6.516l5.696,4.926C14.979,11.345,15,11.241,15,11.13V0.857
	C15,0.781,14.988,0.708,14.97,0.638z"/>
<path fill="none" d="M14.381,0.032C14.312,0.013,14.242,0,14.167,0H0.83C0.756,0,0.685,0.013,0.617,0.032L7.499,7.1L14.381,0.032z"
	/>
<path fill="none" d="M0.027,0.638c-0.018,0.07-0.031,0.143-0.031,0.219V11.13c0,0.111,0.022,0.215,0.06,0.312l5.696-4.926
	L0.027,0.638z"/>
<path fill="none" d="M7.793,8.008C7.712,8.091,7.605,8.134,7.499,8.134c-0.106,0-0.213-0.042-0.295-0.126l-0.86-0.884l-5.61,4.852
	c0.032,0.004,0.064,0.011,0.097,0.011h13.337c0.033,0,0.065-0.007,0.097-0.011l-5.61-4.852L7.793,8.008z"/>
</svg>
