<?xml version="1.0" encoding="utf-8"?>
<!-- Generator: Adobe Illustrator 13.0.2, SVG Export Plug-In . SVG Version: 6.00 Build 14948)  -->
<!DOCTYPE svg PUBLIC "-//W3C//DTD SVG 1.1//EN" "http://www.w3.org/Graphics/SVG/1.1/DTD/svg11.dtd">
<svg version="1.1" id="Layer_1" xmlns="http://www.w3.org/2000/svg" xmlns:xlink="http://www.w3.org/1999/xlink" x="0px" y="0px"
	 width="13px" height="16px" viewBox="0 0 13 16" enable-background="new 0 0 13 16" xml:space="preserve">
<path fill="none" d="M6.508-0.005c-3.585,0-6.492,2.786-6.492,6.225c0,1.593,0.629,3.041,1.656,4.142H1.664L6.508,16
	c0,0,4.696-5.487,4.837-5.639c1.027-1.1,1.656-2.55,1.656-4.141C13.001,2.781,10.094-0.005,6.508-0.005z M6.508,11.11
	c-2.817,0-5.101-2.19-5.101-4.89c0-2.701,2.283-4.891,5.101-4.891s5.101,2.19,5.101,4.891C11.609,8.919,9.326,11.11,6.508,11.11z"/>
</svg>
