<?xml version="1.0" encoding="utf-8"?>
<!-- Generator: Adobe Illustrator 13.0.2, SVG Export Plug-In . SVG Version: 6.00 Build 14948)  -->
<!DOCTYPE svg PUBLIC "-//W3C//DTD SVG 1.1//EN" "http://www.w3.org/Graphics/SVG/1.1/DTD/svg11.dtd">
<svg version="1.1" id="Layer_1" xmlns="http://www.w3.org/2000/svg" xmlns:xlink="http://www.w3.org/1999/xlink" x="0px" y="0px"
	 width="13px" height="16px" viewBox="0 0 13 16" enable-background="new 0 0 13 16" xml:space="preserve">
<path fill="none" d="M6.608,0.035c-3.525,0-6.383,2.78-6.383,6.21c0,1.589,0.62,3.034,1.628,4.133H1.845l4.763,5.624
	c0,0,4.618-5.474,4.756-5.625c1.01-1.098,1.628-2.544,1.628-4.132C12.992,2.814,10.134,0.035,6.608,0.035z M6.606,9.469
	c-1.864,0-3.375-1.463-3.375-3.268c0-1.805,1.511-3.268,3.375-3.268c1.864,0,3.375,1.463,3.375,3.268
	C9.982,8.005,8.471,9.469,6.606,9.469z"/>
</svg>
