<?xml version="1.0" encoding="utf-8"?>
<!-- Generator: Adobe Illustrator 13.0.2, SVG Export Plug-In . SVG Version: 6.00 Build 14948)  -->
<!DOCTYPE svg PUBLIC "-//W3C//DTD SVG 1.1//EN" "http://www.w3.org/Graphics/SVG/1.1/DTD/svg11.dtd">
<svg version="1.1" id="Layer_1" xmlns="http://www.w3.org/2000/svg" xmlns:xlink="http://www.w3.org/1999/xlink" x="0px" y="0px"
	 width="16px" height="16px" viewBox="0 0 16 16" enable-background="new 0 0 16 16" xml:space="preserve">
<path fill="none" d="M15.479,12.183c-0.473-0.73-2.062-1.184-3.634-1.833c-1.572-0.648-1.945-0.874-1.945-0.874L9.885,7.982
	c0,0,0.589-0.449,0.772-1.854c0.368,0.106,0.755-0.544,0.776-0.886c0.02-0.33-0.051-1.246-0.5-1.153
	c0.091-0.689,0.158-1.309,0.126-1.637c-0.117-1.2-1.31-2.466-3.145-2.466S4.887,1.251,4.77,2.452
	C4.738,2.78,4.804,3.399,4.896,4.088c-0.449-0.092-0.52,0.823-0.5,1.153c0.021,0.342,0.407,0.992,0.776,0.886
	c0.183,1.406,0.772,1.854,0.772,1.854L5.929,9.476c0,0-0.373,0.225-1.945,0.874c-1.572,0.649-3.161,1.104-3.634,1.833
	c-0.424,0.654-0.296,3.798-0.296,3.798h7.861h7.86C15.774,15.981,15.902,12.837,15.479,12.183z"/>
</svg>
