<?xml version="1.0" encoding="utf-8"?>
<!-- Generator: Adobe Illustrator 13.0.2, SVG Export Plug-In . SVG Version: 6.00 Build 14948)  -->
<!DOCTYPE svg PUBLIC "-//W3C//DTD SVG 1.1//EN" "http://www.w3.org/Graphics/SVG/1.1/DTD/svg11.dtd">
<svg version="1.1" id="Layer_1" xmlns="http://www.w3.org/2000/svg" xmlns:xlink="http://www.w3.org/1999/xlink" x="0px" y="0px"
	 width="17px" height="16px" viewBox="0 0 17 16" enable-background="new 0 0 17 16" xml:space="preserve">
<path fill="none" d="M0.472,13.293l3.145-3.024C3.029,9.271,2.69,8.12,2.69,6.893c0-3.797,3.212-6.886,7.16-6.886
	c3.947,0,7.159,3.089,7.159,6.886s-3.212,6.886-7.159,6.886c-1.477,0-2.851-0.433-3.991-1.172l-3.051,2.935
	c-0.323,0.31-0.746,0.465-1.168,0.465c-0.423,0-0.846-0.155-1.168-0.465C-0.173,14.92-0.173,13.914,0.472,13.293z M14.807,6.893
	c0-2.628-2.225-4.768-4.957-4.768c-2.734,0-4.957,2.139-4.957,4.768S7.116,11.66,9.85,11.66C12.582,11.66,14.807,9.521,14.807,6.893
	z"/>
</svg>
