<svg xmlns="http://www.w3.org/2000/svg" xmlns:xlink="http://www.w3.org/1999/xlink">
<path fill="#C7D5DE" id="name" d="M21.765,29.198c-0.473-0.73-2.062-1.186-3.634-1.834s-1.945-0.874-1.945-0.874l-0.015-1.494
	c0,0,0.59-0.448,0.772-1.854c0.368,0.105,0.755-0.544,0.776-0.887c0.02-0.33-0.052-1.245-0.5-1.153
	c0.091-0.689,0.157-1.309,0.125-1.637c-0.117-1.2-1.31-2.466-3.144-2.466s-3.028,1.266-3.145,2.466
	c-0.032,0.328,0.034,0.947,0.125,1.637c-0.449-0.092-0.52,0.823-0.5,1.153c0.021,0.342,0.407,0.992,0.776,0.887
	c0.183,1.405,0.772,1.854,0.772,1.854l-0.015,1.494c0,0-0.373,0.226-1.945,0.874s-3.161,1.104-3.634,1.834
	c-0.423,0.653-0.296,3.797-0.296,3.797h7.86h7.861C22.062,32.995,22.188,29.852,21.765,29.198z"/>
	<use xlink:href="#name" transform="translate(100,0)"/>

<path id="curve" d="M 10 100 C 200 30 300 250 350 50"
stroke="black" fill="none" stroke-width="5" transform="rotate(120,219.5,241)"/>


<text id="T" style="font-family:ariel;font-size:16;" x="100" y="100" transform="rotate(120,219.5,241)">

Hello, here is some text lying along a bezier curve.

</text>
</svg>