<?xml version="1.0" standalone="yes"?>
<svg xmlns="http://www.w3.org/2000/svg" xmlns:xlink="http://www.w3.org/1999/xlink" version="1.1" id="Layer_1" xml:space="preserve" viewBox="0 0 150 400.583">
	<defs>
	<g id="comments"><path fill-rule="evenodd" clip-rule="evenodd" fill="inherit" d="M8.304-0.002c4.589,0,7.111,2.731,7.111,6.159  c0,3.427-2.522,5.687-7.111,5.687c-0.559,0-1.105-0.042-1.634-0.12c-2.137,2.8-5.277,2.634-5.277,2.634  c2.38-1.167,2.086-3.132,1.663-3.39C1.188,9.83-0.005,8.097-0.005,6.157C-0.005,2.729,3.715-0.002,8.304-0.002z"/><path fill-rule="evenodd" clip-rule="evenodd" fill="inherit" d="M9.689,13.162c1.212,0.89,1.22,1.293,3.2,1.293  c0.56,0,1.105-0.162,1.634-0.241c2.136,2.801,5.628,1.502,5.628,1.502c-2.38-1.168-2.437-2.519-2.013-2.777  c1.868-1.138,2.871-2.871,2.871-4.812c0-2.339-1.402-5.246-5.083-5.974C18.368,7.259,16.786,13.209,9.689,13.162z"/></g><g id="company"><path fill="inherit" d="M10,5v11h5V5H10z M12,14h-1v-1h1V14z M12,12h-1v-1h1V12z M12,10h-1V9h1V10z M12,8h-1V7h1V8z M14,14h-1v-1h1V14z   M14,12h-1v-1h1V12z M14,10h-1V9h1V10z M14,8h-1V7h1V8z"/><path fill="inherit" d="M8,7H7V4L6,2H5V0H4v2H2.999L2,4v3H1L0,8v8h9V8L8,7z M5,4h1v1H5V4z M3,4h1v1H3V4z M3,14H2v-1h1V14z M3,12H2v-1h1  V12z M3,10H2V9h1V10z M3,6h1v1H3V6z M5,14H4v-1h1V14z M5,12H4v-1h1V12z M5,10H4V9h1V10z M5,6h1v1H5V6z M7,14H6v-1h1V14z M7,12H6v-1  h1V12z M7,10H6V9h1V10z"/></g><g id="email"><path fill="inherit" d="M14.97,0.638L9.246,6.516l5.696,4.926C14.979,11.345,15,11.241,15,11.13V0.857  C15,0.781,14.988,0.708,14.97,0.638z"/><path fill="inherit" d="M14.381,0.032C14.312,0.013,14.242,0,14.167,0H0.83C0.756,0,0.685,0.013,0.617,0.032L7.499,7.1L14.381,0.032z"/><path fill="inherit" d="M0.027,0.638c-0.018,0.07-0.031,0.143-0.031,0.219V11.13c0,0.111,0.022,0.215,0.06,0.312l5.696-4.926  L0.027,0.638z"/><path fill="inherit" d="M7.793,8.008C7.712,8.091,7.605,8.134,7.499,8.134c-0.106,0-0.213-0.042-0.295-0.126l-0.86-0.884l-5.61,4.852  c0.032,0.004,0.064,0.011,0.097,0.011h13.337c0.033,0,0.065-0.007,0.097-0.011l-5.61-4.852L7.793,8.008z"/></g><g id="location"><path fill="inherit" d="M6.508-0.005c-3.585,0-6.492,2.786-6.492,6.225c0,1.593,0.629,3.041,1.656,4.142H1.664L6.508,16  c0,0,4.696-5.487,4.837-5.639c1.027-1.1,1.656-2.55,1.656-4.141C13.001,2.781,10.094-0.005,6.508-0.005z M6.508,11.11  c-2.817,0-5.101-2.19-5.101-4.89c0-2.701,2.283-4.891,5.101-4.891s5.101,2.19,5.101,4.891C11.609,8.919,9.326,11.11,6.508,11.11z"/></g><g id="name"><path fill="inherit" d="M15.479,12.183c-0.473-0.73-2.062-1.184-3.634-1.833c-1.572-0.648-1.945-0.874-1.945-0.874L9.885,7.982  c0,0,0.589-0.449,0.772-1.854c0.368,0.106,0.755-0.544,0.776-0.886c0.02-0.33-0.051-1.246-0.5-1.153  c0.091-0.689,0.158-1.309,0.126-1.637c-0.117-1.2-1.31-2.466-3.145-2.466S4.887,1.251,4.77,2.452  C4.738,2.78,4.804,3.399,4.896,4.088c-0.449-0.092-0.52,0.823-0.5,1.153c0.021,0.342,0.407,0.992,0.776,0.886  c0.183,1.406,0.772,1.854,0.772,1.854L5.929,9.476c0,0-0.373,0.225-1.945,0.874c-1.572,0.649-3.161,1.104-3.634,1.833  c-0.424,0.654-0.296,3.798-0.296,3.798h7.861h7.86C15.774,15.981,15.902,12.837,15.479,12.183z"/></g><g id="person"><path fill="inherit" d="M15.479,12.183c-0.473-0.73-2.062-1.184-3.634-1.833c-1.572-0.648-1.945-0.874-1.945-0.874L9.885,7.982  c0,0,0.589-0.449,0.772-1.854c0.368,0.106,0.755-0.544,0.776-0.886c0.02-0.33-0.051-1.246-0.5-1.153  c0.091-0.689,0.158-1.309,0.126-1.637c-0.117-1.2-1.31-2.466-3.145-2.466S4.887,1.251,4.77,2.452  C4.738,2.78,4.804,3.399,4.896,4.088c-0.449-0.092-0.52,0.823-0.5,1.153c0.021,0.342,0.407,0.992,0.776,0.886  c0.183,1.406,0.772,1.854,0.772,1.854L5.929,9.476c0,0-0.373,0.225-1.945,0.874c-1.572,0.649-3.161,1.104-3.634,1.833  c-0.424,0.654-0.296,3.798-0.296,3.798h7.861h7.86C15.774,15.981,15.902,12.837,15.479,12.183z"/></g><g id="phone"><path fill="inherit" d="M0.886,15.153l-0.769-0.538c-0.688-0.481,1.663-3.834,2.351-3.354l0.77,0.539  c1.03,0.721,1.917,0.573,2.625-0.437l3.16-4.508c0.708-1.008,0.543-1.894-0.487-2.614L7.766,3.705  c-0.688-0.481,1.877-4.14,2.564-3.658l0.769,0.538c2.404,1.68,2.393,4.527,0.744,6.881l-4.23,6.033  C5.963,15.851,3.289,16.835,0.886,15.153z"/></g></defs>
<use xlink:href="#comments" fill="black"/><use xlink:href="#company" fill="black"/><use xmlns:xlink="xlink" xlink:href="#email" fill="black"/><use xmlns:xlink="xlink" xlink:href="#location" fill="black"/><use xmlns:xlink="xlink" xlink:href="#name" fill="black"/><use xmlns:xlink="xlink" xlink:href="#person" fill="black"/><use xmlns:xlink="xlink" xlink:href="#phone" fill="black"/></svg>
