<?xml version="1.0" encoding="utf-8"?>
<!-- Generator: Adobe Illustrator 16.0.0, SVG Export Plug-In . SVG Version: 6.00 Build 0)  -->
<!DOCTYPE svg PUBLIC "-//W3C//DTD SVG 1.1//EN" "http://www.w3.org/Graphics/SVG/1.1/DTD/svg11.dtd">
<svg version="1.1" id="Layer_1" xmlns="http://www.w3.org/2000/svg" xmlns:xlink="http://www.w3.org/1999/xlink" x="0px" y="0px"
	 width="500px" height="500px" viewBox="0 0 500 500" enable-background="new 0 0 500 500" xml:space="preserve">
<g>
	<g>
		<path fill="#FFFFFF" d="M266.018,186.619c4.801-4.789,9.181-9.109,13.187-13.004c-12.829-14.172-22.304-23.63-22.919-24.242
			c-3.619-3.602-9.473-3.589-13.075,0.03c-3.602,3.619-3.588,9.473,0.031,13.075C243.39,162.626,253.047,172.267,266.018,186.619z"
			/>
		<path fill="#FFFFFF" d="M229.238,310.006c-1.205,1.014-2.41,2.026-3.613,3.033c-3.614,3.023-7.159,5.959-10.624,8.801
			c15.382,17.669,27.496,29.993,28.281,30.789c1.809,1.834,4.196,2.754,6.583,2.754c2.345,0,4.691-0.887,6.492-2.663
			c3.636-3.586,3.676-9.439,0.091-13.075C256.262,339.455,244.357,327.345,229.238,310.006z"/>
		<path fill="#FFFFFF" d="M182.129,280.99c1.79-2.201,3.5-4.286,5.096-6.227c2.335-2.84,4.692-5.678,7.061-8.517
			c-28.097-39.379-31.966-60.467-25.639-66.793c0.676-0.676,1.39-1.454,2.859-1.454c0.008,0,0.016,0,0.024,0
			c4.046,0,12.347,3.314,28.916,17.263c6.573,5.533,13.614,12.276,20.828,19.295c4.171-4.743,8.291-9.394,12.32-13.857
			c-24.03-23.374-45.051-40.7-62.008-40.7c-0.026,0-0.051,0-0.077,0c-6.167,0-11.678,2.364-15.938,6.624
			c-10.165,10.165-10.716,26.179-1.637,47.485C159.554,247.299,169.035,263.082,182.129,280.99z"/>
		<path fill="#FFFFFF" d="M321.645,225.358c-3.209,3.264-6.655,6.734-10.365,10.444c-0.928,0.927-1.885,1.875-2.857,2.834
			c22.238,31.337,26.087,47.345,26.096,54.64c0.006,4.719-1.516,7.117-2.658,8.262c-0.697,0.697-1.435,1.462-2.943,1.462
			c-0.008,0-0.016,0-0.023,0c-4.08,0-12.438-3.3-29.086-17.308c-6.547-5.508-13.551-12.198-20.727-19.174
			c-4.457,4.067-9.063,8.225-13.775,12.422C289.948,303.023,311.488,321,328.836,321c0.025,0,0.051,0,0.078,0
			c6.199,0,11.738-2.349,16.021-6.633c5.367-5.368,8.084-12.485,8.073-21.069c-0.014-11.834-5.245-26.457-15.993-44.662
			C332.754,241.417,327.609,233.621,321.645,225.358z"/>
		<path fill="#FFFFFF" d="M354.596,162.708c-0.031-0.458-0.09-0.906-0.172-1.346s-0.189-0.872-0.318-1.297
			c-0.912-2.978-2.976-5.633-5.828-8.486c-0.471-0.47-0.935-0.915-1.396-1.34c-0.041-0.038-0.082-0.075-0.123-0.113
			c-0.44-0.402-0.877-0.783-1.313-1.141c-0.031-0.025-0.063-0.052-0.093-0.077c-0.453-0.368-0.905-0.712-1.359-1.03
			c-0.034-0.024-0.069-0.047-0.104-0.071c-0.433-0.299-0.867-0.574-1.306-0.825c-0.046-0.026-0.092-0.053-0.138-0.079
			c-0.463-0.259-0.93-0.492-1.402-0.694c-0.012-0.005-0.025-0.009-0.037-0.015c-0.467-0.197-0.941-0.363-1.423-0.501
			c-0.049-0.014-0.098-0.027-0.147-0.041c-0.471-0.129-0.95-0.23-1.44-0.3c-0.031-0.004-0.062-0.01-0.093-0.015
			c-0.514-0.069-1.038-0.105-1.576-0.106c-0.064,0-0.128,0.002-0.191,0.003c-0.234,0.003-0.471,0.012-0.709,0.028
			c-0.082,0.005-0.162,0.01-0.244,0.017c-0.307,0.026-0.617,0.059-0.932,0.106c-0.014,0.002-0.027,0.005-0.042,0.007
			c-0.303,0.046-0.612,0.105-0.925,0.172c-0.083,0.018-0.167,0.037-0.251,0.056c-0.282,0.064-0.567,0.137-0.856,0.218
			c-0.055,0.015-0.107,0.028-0.162,0.044c-0.346,0.1-0.696,0.212-1.054,0.335c-0.067,0.023-0.136,0.049-0.202,0.073
			c-0.302,0.107-0.606,0.223-0.916,0.347c-0.084,0.033-0.166,0.066-0.25,0.1c-0.75,0.31-1.529,0.67-2.339,1.082
			c-0.089,0.045-0.178,0.092-0.267,0.138c-0.363,0.188-0.73,0.386-1.107,0.595c-0.049,0.027-0.096,0.052-0.145,0.08
			c-0.432,0.243-0.872,0.5-1.321,0.771c-0.067,0.04-0.136,0.083-0.203,0.125c-0.388,0.236-0.782,0.483-1.183,0.74
			c-0.09,0.058-0.18,0.114-0.27,0.173c-0.937,0.607-1.91,1.271-2.926,1.995c-0.097,0.069-0.193,0.14-0.292,0.21
			c-0.461,0.332-0.93,0.675-1.407,1.031c-0.054,0.04-0.105,0.077-0.158,0.117c-0.541,0.405-1.094,0.826-1.657,1.263
			c-0.069,0.054-0.142,0.11-0.21,0.164c-0.492,0.383-0.993,0.779-1.502,1.186c-0.109,0.087-0.217,0.173-0.327,0.261
			c-1.16,0.933-2.367,1.93-3.623,2.992c-0.126,0.107-0.254,0.216-0.382,0.324c-0.555,0.472-1.12,0.956-1.695,1.453
			c-0.083,0.072-0.164,0.141-0.247,0.213c-0.661,0.573-1.334,1.164-2.021,1.771c-0.104,0.091-0.209,0.186-0.313,0.277
			c-0.59,0.524-1.191,1.06-1.801,1.609c-0.146,0.132-0.293,0.264-0.441,0.397c-1.422,1.282-2.896,2.633-4.429,4.055
			c-0.173,0.161-0.348,0.324-0.522,0.486c-0.652,0.606-1.313,1.225-1.986,1.856c-0.135,0.126-0.266,0.248-0.4,0.375
			c-0.796,0.749-1.605,1.516-2.432,2.301c-0.152,0.145-0.309,0.294-0.461,0.44c-0.689,0.656-1.389,1.326-2.1,2.007
			c-0.211,0.202-0.42,0.404-0.633,0.608c-1.355,1.304-2.76,2.665-4.193,4.061c-0.379,0.369-0.754,0.731-1.139,1.107
			c-0.24,0.235-0.482,0.472-0.726,0.71c-0.742,0.725-1.494,1.463-2.257,2.212c-0.215,0.211-0.426,0.418-0.643,0.631
			c-0.941,0.927-1.898,1.872-2.871,2.835c-0.226,0.222-0.455,0.451-0.682,0.675c-0.785,0.777-1.579,1.566-2.385,2.368
			c-0.297,0.294-0.592,0.589-0.891,0.886c-0.525,0.523-1.063,1.061-1.598,1.593c-0.47,0.469-0.93,0.927-1.407,1.404
			c-0.034,0.034-0.067,0.067-0.102,0.102c-2.726,2.725-5.567,5.628-8.504,8.682c-2.938,3.054-5.968,6.258-9.07,9.584
			c-2.327,2.495-4.693,5.059-7.09,7.68c-0.799,0.874-1.601,1.754-2.407,2.64c-1.104,1.215-2.216,2.445-3.331,3.681
			c-2.137,2.37-4.289,4.773-6.454,7.208c2.165-2.436,4.317-4.839,6.454-7.208c-2.67-2.66-5.304-5.256-7.905-7.786
			c-4.029,4.464-8.149,9.09-12.32,13.834c2.618,2.547,5.26,5.155,7.911,7.796c1.13-1.287,2.259-2.569,3.385-3.843
			c-1.126,1.274-2.255,2.557-3.385,3.843c-0.528,0.601-1.056,1.202-1.585,1.806c-4.149,4.739-8.309,9.55-12.436,14.38
			c-3.302,3.864-6.582,7.739-9.818,11.598c-1.442,1.72-2.874,3.436-4.297,5.146c-0.173,0.208-0.348,0.417-0.521,0.625
			c-1.593,1.918-3.172,3.828-4.734,5.727c-1.562,1.899-3.107,3.789-4.633,5.662c-0.729,0.896-1.454,1.787-2.174,2.676
			c-0.786,0.971-1.567,1.938-2.34,2.898c-0.742,0.921-1.477,1.837-2.207,2.748c-1.46,1.823-2.895,3.626-4.303,5.405
			c-2.113,2.67-4.165,5.287-6.146,7.841c-4.623,5.959-8.863,11.57-12.595,16.685c-1.066,1.462-2.091,2.883-3.071,4.26
			c-0.49,0.688-0.969,1.365-1.437,2.031c-1.403,1.998-2.703,3.895-3.89,5.675c-3.562,5.342-6.109,9.652-7.378,12.616
			c-0.076,0.179-0.135,0.356-0.182,0.534c-0.015,0.058-0.024,0.114-0.036,0.171c-0.026,0.121-0.049,0.241-0.063,0.361
			c-0.007,0.065-0.011,0.13-0.015,0.194c-0.007,0.11-0.009,0.222-0.005,0.331c0.002,0.063,0.005,0.128,0.01,0.19
			c0.01,0.113,0.027,0.225,0.047,0.334c0.01,0.056,0.018,0.11,0.03,0.165c0.033,0.143,0.075,0.281,0.125,0.417
			c0.007,0.02,0.011,0.039,0.018,0.058c0.059,0.153,0.129,0.302,0.208,0.445c0.024,0.043,0.052,0.084,0.077,0.126
			c0.059,0.1,0.12,0.195,0.188,0.288c0.035,0.048,0.073,0.095,0.111,0.142c0.066,0.082,0.134,0.16,0.207,0.236
			c0.042,0.045,0.085,0.089,0.13,0.131c0.078,0.074,0.159,0.145,0.243,0.211c0.044,0.036,0.087,0.073,0.133,0.107
			c0.105,0.078,0.216,0.148,0.329,0.214c0.028,0.017,0.054,0.036,0.082,0.052c0.143,0.079,0.292,0.148,0.446,0.208
			c0.041,0.017,0.085,0.027,0.127,0.042c0.114,0.039,0.229,0.076,0.347,0.104c0.058,0.014,0.118,0.024,0.177,0.035
			c0.106,0.02,0.214,0.035,0.323,0.045c0.064,0.006,0.128,0.01,0.192,0.012c0.083,0.003,0.166-0.001,0.25-0.004
			c0.157-0.005,0.316-0.021,0.476-0.049c0.068-0.011,0.136-0.021,0.204-0.035c0.224-0.051,0.45-0.117,0.676-0.213
			c0.988-0.423,2.123-0.99,3.395-1.691c0.848-0.467,1.756-0.994,2.721-1.578c0.965-0.584,1.988-1.224,3.064-1.918
			c3.229-2.082,6.94-4.647,11.043-7.616c1.368-0.99,2.779-2.025,4.23-3.102c2.177-1.615,4.443-3.324,6.788-5.118
			c2.345-1.794,4.769-3.672,7.259-5.625c1.66-1.302,3.351-2.637,5.067-4.002c0.858-0.682,1.723-1.373,2.594-2.069
			c1.742-1.395,3.509-2.817,5.297-4.267s3.597-2.923,5.424-4.421c0.139-0.114,0.28-0.229,0.419-0.344
			c1.69-1.387,3.394-2.79,5.112-4.213c2.789-2.311,5.61-4.664,8.453-7.053c0.222-0.187,0.445-0.375,0.666-0.563
			c1.675-1.41,3.356-2.829,5.043-4.26c0.955-0.811,1.912-1.625,2.869-2.44c1.915-1.632,3.834-3.276,5.754-4.927
			c1.405-1.209,2.811-2.424,4.216-3.639c1.028-0.891,2.054-1.781,3.08-2.674c1.852-1.611,3.7-3.225,5.542-4.841
			c1.014-0.89,2.026-1.78,3.036-2.67c1.395-1.229,2.784-2.457,4.168-3.685c0.563-0.5,1.125-1,1.686-1.5
			c2.667,2.664,5.304,5.275,7.902,7.816c4.713-4.197,9.319-8.351,13.775-12.418c-2.62-2.547-5.262-5.154-7.914-7.794
			c-1.426,1.3-2.861,2.604-4.313,3.917c1.451-1.313,2.887-2.617,4.313-3.917c0.368-0.336,0.739-0.673,1.105-1.007
			c0.893-0.816,1.779-1.629,2.662-2.438c1.763-1.621,3.502-3.228,5.217-4.818c7.891-7.329,15.214-14.326,21.645-20.709
			c0.551-0.547,1.102-1.093,1.639-1.631c4.131-4.13,7.963-7.994,11.521-11.622c4.5-4.587,8.558-8.794,12.198-12.656
			c1.777-1.886,3.455-3.691,5.039-5.42c2.111-2.305,4.052-4.475,5.832-6.522c1.334-1.535,2.578-3.001,3.736-4.402
			c2.315-2.803,4.281-5.35,5.928-7.68c0.549-0.777,1.062-1.53,1.539-2.26c0.24-0.365,0.471-0.725,0.692-1.079
			c0.444-0.708,0.854-1.395,1.232-2.061c0.942-1.666,1.681-3.206,2.229-4.643c0.22-0.575,0.408-1.133,0.568-1.677
			c0.319-1.087,0.522-2.114,0.616-3.094C354.635,164.103,354.645,163.395,354.596,162.708z M319.571,187.952
			c-5.989,5.989-11.933,10.75-16.447,13.404c-3.618,2.128-6.317,2.905-7.37,1.853c-1.113-1.114-0.166-4.084,2.257-8.03
			c2.718-4.426,7.296-10.082,13.001-15.787c10.79-10.79,21.453-17.621,23.816-15.258
			C337.191,166.497,330.361,177.162,319.571,187.952z"/>
	</g>
</g>
</svg>
